<svg xmlns="http://www.w3.org/2000/svg" viewBox="0 0 1200 760">
  <rect width="1200" height="760" fill="#f1f5f9"/>
  <rect x="50" y="50" width="1100" height="660" rx="16" fill="#fff" stroke="#0f172a" stroke-width="4"/>
  <text x="70" y="42" font-size="28" font-family="Manrope,Arial" font-weight="800" fill="#0f172a">Trading Office Floor Plan (40ft x 28ft)</text>
  <rect x="90" y="110" width="500" height="260" fill="#d1fae5" stroke="#0f172a"/>
  <text x="110" y="145" font-size="20" font-family="Manrope,Arial" fill="#0f172a">Main Trading Hall (20ft x 12ft)</text>
  <rect x="620" y="110" width="490" height="160" fill="#bfdbfe" stroke="#0f172a"/>
  <text x="640" y="145" font-size="20" font-family="Manrope,Arial" fill="#0f172a">Research / News Desk (16ft x 8ft)</text>
  <rect x="620" y="290" width="240" height="180" fill="#fde68a" stroke="#0f172a"/>
  <text x="640" y="325" font-size="20" font-family="Manrope,Arial" fill="#0f172a">Server + IT</text>
  <rect x="870" y="290" width="240" height="180" fill="#fecaca" stroke="#0f172a"/>
  <text x="890" y="325" font-size="20" font-family="Manrope,Arial" fill="#0f172a">Meeting Room</text>
  <rect x="90" y="390" width="500" height="260" fill="#ddd6fe" stroke="#0f172a"/>
  <text x="110" y="425" font-size="20" font-family="Manrope,Arial" fill="#0f172a">Training / Mentorship Bay</text>
  <line x1="90" y1="680" x2="590" y2="680" stroke="#ef4444" stroke-width="3"/>
  <line x1="90" y1="665" x2="90" y2="695" stroke="#ef4444" stroke-width="3"/>
  <line x1="590" y1="665" x2="590" y2="695" stroke="#ef4444" stroke-width="3"/>
  <text x="300" y="710" font-size="18" font-family="Manrope,Arial" fill="#ef4444">20 ft</text>
  <line x1="1130" y1="110" x2="1130" y2="470" stroke="#ef4444" stroke-width="3"/>
  <line x1="1115" y1="110" x2="1145" y2="110" stroke="#ef4444" stroke-width="3"/>
  <line x1="1115" y1="470" x2="1145" y2="470" stroke="#ef4444" stroke-width="3"/>
  <text x="1145" y="300" font-size="18" font-family="Manrope,Arial" fill="#ef4444" transform="rotate(90 1145 300)">16 ft</text>
</svg>
